<svg width="18" height="18" viewBox="0 0 18 18" fill="none" xmlns="http://www.w3.org/2000/svg">
<g clip-path="url(#clip0_1076_5837)">
<path d="M14.0339 8.68537C13.6335 8.68537 13.3099 9.00971 13.3099 9.40935V15.2012C13.3099 15.6001 12.9856 15.9251 12.5859 15.9251H2.45025C2.05062 15.9251 1.72627 15.6001 1.72627 15.2012V5.06549C1.72627 4.66657 2.05062 4.34151 2.45025 4.34151H8.24207C8.64242 4.34151 8.96604 4.01717 8.96604 3.61753C8.96604 3.2179 8.64242 2.89355 8.24207 2.89355H2.45025C1.25279 2.89355 0.27832 3.86803 0.27832 5.06549V15.2012C0.27832 16.3986 1.25279 17.3731 2.45025 17.3731H12.5859C13.7834 17.3731 14.7579 16.3986 14.7579 15.2012V9.40935C14.7579 9.00899 14.4342 8.68537 14.0339 8.68537Z" fill="#081021"/>
<path d="M7.06634 8.02596C7.01566 8.07663 6.98163 8.14107 6.96715 8.21057L6.4553 10.7706C6.43141 10.8893 6.46906 11.0116 6.55449 11.0978C6.62327 11.1666 6.71593 11.2035 6.81078 11.2035C6.83394 11.2035 6.85783 11.2013 6.88173 11.1963L9.44098 10.6844C9.51193 10.6699 9.57637 10.6359 9.62632 10.5852L15.3544 4.85711L12.7952 2.29785L7.06634 8.02596Z" fill="#081021"/>
<path d="M17.1237 0.527455C16.4179 -0.178422 15.2696 -0.178422 14.5645 0.527455L13.5625 1.52944L16.1218 4.0887L17.1237 3.08671C17.4655 2.74572 17.6537 2.29106 17.6537 1.80745C17.6537 1.32383 17.4655 0.869172 17.1237 0.527455Z" fill="#081021"/>
</g>
<defs>
<clipPath id="clip0_1076_5837">
<rect width="17.3754" height="17.3754" fill="white" transform="translate(0.27832 -0.00292969)"/>
</clipPath>
</defs>
</svg>
